#tb 0: 1/25
0,          0,          0,        1,   152064, 0x2760b14a
0,          1,          1,        1,   152064, 0xcf94baaf
0,          2,          2,        1,   152064, 0x9b5e0e0a
0,          3,          3,        1,   152064, 0x6bfb8127
0,          4,          4,        1,   152064, 0xa0293fed
